<svg width="116" height="69" viewBox="0 0 116 69" fill="none" xmlns="http://www.w3.org/2000/svg">
<g clip-path="url(#clip0_99_320)">
<path d="M58.6024 1.09279e-06C58.4764 -0.0249387 56.3619 1.33843 53.9458 3.03101L49.5403 6.13768L49.4657 24.4992L49.4152 42.7767H67.5385V6.13768L63.2092 3.10666C60.8172 1.43986 58.7532 0.0507119 58.6024 1.09279e-06Z" fill="url(#paint0_linear_99_320)"/>
<path d="M37.7605 10.0524C37.584 10.0773 35.4943 11.341 33.1288 12.8556L28.7738 15.6339V42.7767H46.6154L46.6237 42.731V15.4859L42.4916 12.8556C40.0498 11.3152 37.9353 10.0524 37.7597 10.0524H37.7605Z" fill="url(#paint1_linear_99_320)"/>
<path style="mix-blend-mode:multiply" d="M78.6149 20.4839C78.5386 20.4581 76.6263 21.6195 74.3601 23.0593C73.0597 23.8983 71.7627 24.7426 70.4692 25.5924V42.7659L71.7891 42.7767H87.2245V25.8966C86.6885 25.4859 78.9885 20.6335 78.614 20.483L78.6149 20.4839Z" fill="url(#paint2_linear_99_320)"/>
<path d="M19.7879 66.1535L12.5843 46.9566L5.25646 66.1535H0L10.0357 40.0316H15.0618L25.0792 66.1535H19.7879Z" fill="url(#paint3_linear_99_320)"/>
<path d="M30.0887 66.1535H27.5227V46.8327H32.2306V58.1803L42.0889 46.8327H44.4073V66.1527H39.6993V55.0379L30.0887 66.1535Z" fill="url(#paint4_linear_99_320)"/>
<path d="M57.0099 46.8327L50.373 62.0509H47.4689V68.7431H51.7691V66.1535H65.2036V68.7423H69.8055V62.0509H66.8491L60.1236 46.8327H57.0082H57.0099ZM58.5676 53.9181L61.7178 62.0509H55.3105L58.5667 53.9181H58.5676Z" fill="url(#paint5_linear_99_320)"/>
<path d="M92.1413 57.896H76.6188C76.8425 59.2693 77.4391 60.3642 78.4069 61.1814C79.3863 61.9861 80.6308 62.3885 82.1413 62.3885C83.9467 62.3885 85.4978 61.755 86.7962 60.4889L90.8669 62.4059C89.8519 63.8508 88.6364 64.9223 87.2212 65.6207C85.8052 66.3073 84.1232 66.6507 82.1769 66.6507C79.1559 66.6507 76.6959 65.6971 74.796 63.7909C72.8961 61.8739 71.9465 59.4763 71.9465 56.5999C71.9465 53.6521 72.8911 51.2071 74.7786 49.2652C76.6785 47.3115 79.0557 46.3356 81.9109 46.3356C84.9435 46.3356 87.4093 47.3124 89.3092 49.2652C91.2091 51.2071 92.1587 53.7759 92.1587 56.9724L92.1413 57.8951V57.896ZM87.2917 54.0777C86.9735 53.0003 86.3421 52.1241 85.3975 51.4499C84.4654 50.7748 83.38 50.4373 82.1413 50.4373C80.7965 50.4373 79.6166 50.8164 78.6016 51.5738C77.9636 52.0476 77.3745 52.8823 76.8318 54.0777H87.2917Z" fill="url(#paint6_linear_99_320)"/>
<path d="M106.955 46.3356C105.836 46.328 104.728 46.5516 103.699 46.9923C102.684 47.4304 101.74 48.0872 100.867 48.9634V46.8327H96.0704V68.7423H100.867V64.1118C101.812 65.0105 102.761 65.6622 103.716 66.0646C104.673 66.4553 105.705 66.6507 106.814 66.6507C109.303 66.6507 111.457 65.6855 113.274 63.756C115.091 61.814 116 59.4057 116 56.5285C116 53.5448 115.121 51.0999 113.363 49.1945C111.604 47.2883 109.469 46.3347 106.955 46.3347V46.3356ZM105.947 50.8106C107.457 50.8106 108.708 51.3427 109.699 52.4084C110.69 53.4625 111.186 54.8176 111.186 56.4753C111.186 58.1446 110.678 59.5179 109.664 60.5953C108.661 61.6719 107.422 62.2106 105.947 62.2106C104.425 62.2106 103.162 61.6843 102.159 60.631C101.156 59.5653 100.655 58.1737 100.655 56.4578C100.655 54.7769 101.156 53.4151 102.159 52.3735C103.162 51.331 104.425 50.8106 105.947 50.8106Z" fill="url(#paint7_linear_99_320)"/>
</g>
<defs>
<linearGradient id="paint0_linear_99_320" x1="49.5403" y1="6.13768" x2="67.2469" y2="6.46388" gradientUnits="userSpaceOnUse">
<stop stop-color="#4A6C1E"/>
<stop offset="1" stop-color="#6D9730"/>
</linearGradient>
<linearGradient id="paint1_linear_99_320" x1="28.7738" y1="15.6339" x2="46.6254" y2="15.5191" gradientUnits="userSpaceOnUse">
<stop stop-color="#111111"/>
<stop offset="1" stop-color="#191919"/>
</linearGradient>
<linearGradient id="paint2_linear_99_320" x1="70.4692" y1="25.5924" x2="87.2246" y2="25.8946" gradientUnits="userSpaceOnUse">
<stop stop-color="#A1A1A1"/>
<stop offset="1" stop-color="#989898"/>
</linearGradient>
<linearGradient id="paint3_linear_99_320" x1="0" y1="54.313" x2="116" y2="54.313" gradientUnits="userSpaceOnUse">
<stop stop-color="#4A6C1E"/>
<stop offset="1" stop-color="#6D9730"/>
</linearGradient>
<linearGradient id="paint4_linear_99_320" x1="-3.46843e-06" y1="54.313" x2="116" y2="54.313" gradientUnits="userSpaceOnUse">
<stop stop-color="#4A6C1E"/>
<stop offset="1" stop-color="#6D9730"/>
</linearGradient>
<linearGradient id="paint5_linear_99_320" x1="-1.6066" y1="37.2351" x2="85.3934" y2="37.2351" gradientUnits="userSpaceOnUse">
<stop stop-color="#4A6C1E"/>
<stop offset="1" stop-color="#6D9730"/>
</linearGradient>
<linearGradient id="paint6_linear_99_320" x1="6.76093e-06" y1="54.313" x2="116" y2="54.313" gradientUnits="userSpaceOnUse">
<stop stop-color="#4A6C1E"/>
<stop offset="1" stop-color="#6D9730"/>
</linearGradient>
<linearGradient id="paint7_linear_99_320" x1="-1.60744" y1="37.2351" x2="85.3926" y2="37.2351" gradientUnits="userSpaceOnUse">
<stop stop-color="#4A6C1E"/>
<stop offset="1" stop-color="#6D9730"/>
</linearGradient>
<clipPath id="clip0_99_320">
<rect width="116" height="69" fill="white"/>
</clipPath>
</defs>
</svg>
