<?xml version="1.0" encoding="UTF-8" standalone="no"?>
<svg
   xmlns:dc="http://purl.org/dc/elements/1.1/"
   xmlns:cc="http://creativecommons.org/ns#"
   xmlns:rdf="http://www.w3.org/1999/02/22-rdf-syntax-ns#"
   xmlns:svg="http://www.w3.org/2000/svg"
   xmlns="http://www.w3.org/2000/svg"
   xmlns:sodipodi="http://sodipodi.sourceforge.net/DTD/sodipodi-0.dtd"
   xmlns:inkscape="http://www.inkscape.org/namespaces/inkscape"
   version="1.0"
   width="63.999996"
   height="64"
   viewBox="0 0 47.999995 48.000001"
   preserveAspectRatio="xMidYMid meet"
   id="svg12"
   sodipodi:docname="favicon-stk2.svg"
   inkscape:version="1.0 (4035a4fb49, 2020-05-01)">
  <defs
     id="defs16" />
  <sodipodi:namedview
     fit-margin-bottom="0"
     fit-margin-right="0"
     fit-margin-left="0"
     fit-margin-top="0"
     inkscape:document-rotation="0"
     pagecolor="#ffffff"
     bordercolor="#666666"
     borderopacity="1"
     objecttolerance="10"
     gridtolerance="10"
     guidetolerance="10"
     inkscape:pageopacity="0"
     inkscape:pageshadow="2"
     inkscape:window-width="1920"
     inkscape:window-height="991"
     id="namedview14"
     showgrid="true"
     inkscape:zoom="3.308"
     inkscape:cx="82.087651"
     inkscape:cy="49.807841"
     inkscape:window-x="-9"
     inkscape:window-y="-9"
     inkscape:window-maximized="1"
     inkscape:current-layer="svg12"
     inkscape:pagecheckerboard="false"
     units="px">
    <inkscape:grid
       originy="-162.61739"
       originx="-37.414611"
       type="xygrid"
       id="grid848" />
  </sodipodi:namedview>
  <metadata
     id="metadata2">
Created by potrace 1.15, written by Peter Selinger 2001-2017
<rdf:RDF>
  <cc:Work
     rdf:about="">
    <dc:format>image/svg+xml</dc:format>
    <dc:type
       rdf:resource="http://purl.org/dc/dcmitype/StillImage" />
    <dc:title></dc:title>
  </cc:Work>
</rdf:RDF>
</metadata>
  <g
     transform="matrix(0.06647321,0,0,0.06647321,-0.92745527,-0.92745439)"
     id="g842">
    <g
       transform="translate(-6.280282,81.401749)"
       id="g853">
      <path
         style="fill:#76a436;fill-opacity:1;stroke:none;stroke-width:0.146516"
         id="path4"
         d="M 356.37271,98.799428 330.73261,116.82076 330.29306,223.3371 330,330 h 52.74543 52.74545 V 223.3371 116.82076 L 410.29026,99.238968 c -13.91896,-9.66997 -25.93309,-17.72829 -26.8123,-18.02133 -0.73253,-0.1465 -13.03976,7.76529 -27.10525,17.58179 z" />
      <path
         style="fill:#434242;fill-opacity:1;stroke:none;stroke-width:0.146516"
         id="path6"
         d="m 235.20485,155.79373 -25.34709,16.11664 V 251.02841 330 h 51.86638 51.86625 l 0.87911,-4.54202 c 0.43948,-2.49078 0.87904,-38.09383 0.87904,-78.97141 V 172.05689 L 289.7084,155.79373 c -14.21184,-8.9374 -26.51908,-16.26315 -27.54474,-16.26315 -1.02565,0.14651 -13.1864,7.47227 -26.95881,16.26315 z" />
      <path
         style="fill:#b2b3b3;fill-opacity:1;stroke:none;stroke-width:0.146516"
         id="path8"
         d="m 475.19636,214.9858 c -13.18643,8.49778 -24.90755,16.11661 -26.0797,16.99571 -1.61167,1.4651 -1.90473,10.54911 -1.61167,49.5221 l 0.43953,47.76374 52.45247,0.43958 L 552.7028,330 v -48.05695 c 0,-44.10093 -0.14659,-48.34986 -2.49086,-50.40101 -2.34422,-1.9048 -48.0569,-30.62173 -50.25459,-31.50076 -0.43957,-0.14657 -11.57472,6.59314 -24.76099,14.94452 z" />
    </g>
    <text
       id="text846"
       y="546.38202"
       x="37.20858"
       style="font-style:normal;font-variant:normal;font-weight:bold;font-stretch:normal;font-size:210.978px;line-height:1.25;font-family:'Century Gothic';-inkscape-font-specification:'Century Gothic, Bold';font-variant-ligatures:normal;font-variant-caps:normal;font-variant-numeric:normal;font-variant-east-asian:normal;fill:#76a436;fill-opacity:1;stroke:none;stroke-width:1.09886"
       xml:space="preserve"><tspan
         style="font-style:normal;font-variant:normal;font-weight:bold;font-stretch:normal;font-size:210.978px;font-family:'Century Gothic';-inkscape-font-specification:'Century Gothic, Bold';font-variant-ligatures:normal;font-variant-caps:normal;font-variant-numeric:normal;font-variant-east-asian:normal;fill:#76a436;fill-opacity:1;stroke-width:1.09886"
         y="546.38202"
         x="37.20858"
         id="tspan844"
         sodipodi:role="line">Лидер</tspan></text>
  </g>
</svg>
