<?xml version="1.0" encoding="UTF-8" standalone="no"?>
<svg
   xmlns:dc="http://purl.org/dc/elements/1.1/"
   xmlns:cc="http://creativecommons.org/ns#"
   xmlns:rdf="http://www.w3.org/1999/02/22-rdf-syntax-ns#"
   xmlns:svg="http://www.w3.org/2000/svg"
   xmlns="http://www.w3.org/2000/svg"
   xmlns:sodipodi="http://sodipodi.sourceforge.net/DTD/sodipodi-0.dtd"
   xmlns:inkscape="http://www.inkscape.org/namespaces/inkscape"
   width="120"
   height="120"
   viewBox="0 0 120 120"
   fill="none"
   version="1.1"
   id="svg65"
   sodipodi:docname="favicon-stk.svg"
   inkscape:version="1.0 (4035a4fb49, 2020-05-01)">
  <metadata
     id="metadata69">
    <rdf:RDF>
      <cc:Work
         rdf:about="">
        <dc:format>image/svg+xml</dc:format>
        <dc:type
           rdf:resource="http://purl.org/dc/dcmitype/StillImage" />
      </cc:Work>
    </rdf:RDF>
  </metadata>
  <sodipodi:namedview
     inkscape:document-rotation="0"
     pagecolor="#ffffff"
     bordercolor="#666666"
     borderopacity="1"
     objecttolerance="10"
     gridtolerance="10"
     guidetolerance="10"
     inkscape:pageopacity="0"
     inkscape:pageshadow="2"
     inkscape:window-width="1920"
     inkscape:window-height="991"
     id="namedview67"
     showgrid="false"
     inkscape:zoom="4.8318963"
     inkscape:cx="48.482842"
     inkscape:cy="67.698311"
     inkscape:window-x="-9"
     inkscape:window-y="-9"
     inkscape:window-maximized="1"
     inkscape:current-layer="svg65" />
  <g
     clip-path="url(#clip0)"
     id="g18"
     style="stroke:#000000;stroke-opacity:1;paint-order:fill markers stroke;stroke-linecap:butt;stroke-linejoin:miter;fill:#ffffff">
    <path
       d="M60.5712 27C60.4518 26.9764 58.4466 28.265 56.1555 29.8647L51.9779 32.8009L51.9071 50.155L51.8592 67.4297H69.0451V32.8009L64.9398 29.9362C62.6714 28.3609 60.7142 27.0479 60.5712 27Z"
       fill="url(#paint0_linear)"
       id="path2"
       style="stroke:#000000;stroke-opacity:1;paint-order:fill markers stroke;stroke-linecap:butt;stroke-linejoin:miter;fill:#ffffff" />
    <path
       d="M40.8074 36.5009C40.64 36.5244 38.6584 37.7187 36.4152 39.1503L32.2855 41.7761V67.4297H49.2043L49.2121 67.3865V41.6363L45.2938 39.1503C42.9783 37.6944 40.9731 36.5009 40.8066 36.5009H40.8074Z"
       fill="url(#paint1_linear)"
       id="path4"
       style="stroke:#000000;stroke-opacity:1;paint-order:fill markers stroke;stroke-linecap:butt;stroke-linejoin:miter;fill:#ffffff" />
    <path
       style="mix-blend-mode:multiply;stroke:#000000;stroke-opacity:1;paint-order:fill markers stroke;stroke-linecap:butt;stroke-linejoin:miter;fill:#ffffff"
       d="M79.5486 46.36C79.4763 46.3356 77.6629 47.4333 75.5139 48.7941C74.2807 49.5871 73.0508 50.3851 71.8242 51.1882V67.4195L73.0759 67.4297H87.7129V51.4758C87.2046 51.0876 79.9029 46.5014 79.5478 46.3592L79.5486 46.36Z"
       fill="url(#paint2_linear)"
       id="path6" />
    <path
       d="M23.7644 89.524L16.9334 71.3803L9.98457 89.524H5L14.5166 64.8353H19.2827L28.782 89.524H23.7644Z"
       fill="url(#paint3_linear)"
       id="path8"
       style="stroke:#000000;stroke-opacity:1;paint-order:fill markers stroke;stroke-linecap:butt;stroke-linejoin:miter;fill:#ffffff" />
    <path
       d="M33.5324 89.524H31.0991V71.2632H35.5635V81.9882L44.9119 71.2632H47.1104V89.5232H42.6459V79.0182L33.5324 89.524Z"
       fill="url(#paint4_linear)"
       id="path10"
       style="stroke:#000000;stroke-opacity:1;paint-order:fill markers stroke;stroke-linecap:butt;stroke-linejoin:miter;fill:#ffffff" />
    <path
       d="M59.0611 71.2632L52.7675 85.6465H50.0136V91.9715H54.0914V89.524H66.831V91.9707H71.1949V85.6465H68.3914L62.0138 71.2632H59.0595H59.0611ZM60.5382 77.9599L63.5255 85.6465H57.4496L60.5374 77.9599H60.5382Z"
       fill="url(#paint5_linear)"
       id="path12"
       style="stroke:#000000;stroke-opacity:1;paint-order:fill markers stroke;stroke-linecap:butt;stroke-linejoin:miter;fill:#ffffff" />
    <path
       d="M92.3754 81.7195H77.6558C77.8679 83.0175 78.4336 84.0523 79.3514 84.8246C80.2801 85.5852 81.4602 85.9655 82.8926 85.9655C84.6046 85.9655 86.0755 85.3668 87.3067 84.1701L91.1669 85.982C90.2044 87.3476 89.0518 88.3604 87.7098 89.0204C86.367 89.6694 84.772 89.9939 82.9264 89.9939C80.0616 89.9939 77.7289 89.0927 75.9272 87.291C74.1256 85.4791 73.2251 83.2131 73.2251 80.4946C73.2251 77.7084 74.1209 75.3976 75.9107 73.5622C77.7124 71.7158 79.9666 70.7934 82.6741 70.7934C85.5499 70.7934 87.8881 71.7166 89.6898 73.5622C91.4914 75.3976 92.3919 77.8255 92.3919 80.8466L92.3754 81.7187V81.7195ZM87.7766 78.1107C87.4749 77.0924 86.8761 76.2643 85.9804 75.6271C85.0965 74.9891 84.0672 74.6701 82.8926 74.6701C81.6174 74.6701 80.4985 75.0284 79.536 75.7441C78.931 76.192 78.3724 76.9809 77.8577 78.1107H87.7766V78.1107Z"
       fill="url(#paint6_linear)"
       id="path14"
       style="stroke:#000000;stroke-opacity:1;paint-order:fill markers stroke;stroke-linecap:butt;stroke-linejoin:miter;fill:#ffffff" />
    <path
       d="M106.423 70.7934C105.362 70.7862 104.311 70.9975 103.335 71.4141C102.373 71.8281 101.478 72.4489 100.65 73.277V71.2632H96.1012V91.9707H100.65V87.5943C101.545 88.4437 102.446 89.0597 103.352 89.4399C104.259 89.8092 105.237 89.9939 106.289 89.9939C108.65 89.9939 110.692 89.0817 112.415 87.258C114.138 85.4226 115 83.1464 115 80.427C115 77.6071 114.166 75.2963 112.499 73.4954C110.832 71.6938 108.807 70.7926 106.423 70.7926V70.7934ZM105.467 75.0229C106.899 75.0229 108.085 75.5257 109.025 76.533C109.964 77.5293 110.435 78.81 110.435 80.3767C110.435 81.9544 109.953 83.2524 108.992 84.2707C108.04 85.2882 106.865 85.7974 105.467 85.7974C104.024 85.7974 102.826 85.3 101.875 84.3045C100.924 83.2972 100.449 81.9819 100.449 80.3602C100.449 78.7715 100.924 77.4845 101.875 76.5C102.826 75.5147 104.024 75.0229 105.467 75.0229V75.0229Z"
       fill="url(#paint7_linear)"
       id="path16"
       style="stroke:#000000;stroke-opacity:1;paint-order:fill markers stroke;stroke-linecap:butt;stroke-linejoin:miter;fill:#ffffff" />
  </g>
  <defs
     id="defs63">
    <linearGradient
       id="paint0_linear"
       x1="51.9779"
       y1="32.8009"
       x2="68.7686"
       y2="33.1113"
       gradientUnits="userSpaceOnUse">
      <stop
         stop-color="#4A6C1E"
         id="stop20" />
      <stop
         offset="1"
         stop-color="#6D9730"
         id="stop22" />
    </linearGradient>
    <linearGradient
       id="paint1_linear"
       x1="32.2855"
       y1="41.7761"
       x2="49.2137"
       y2="41.6669"
       gradientUnits="userSpaceOnUse">
      <stop
         stop-color="#111111"
         id="stop25" />
      <stop
         offset="1"
         stop-color="#191919"
         id="stop27" />
    </linearGradient>
    <linearGradient
       id="paint2_linear"
       x1="71.8242"
       y1="51.1882"
       x2="87.7129"
       y2="51.4758"
       gradientUnits="userSpaceOnUse">
      <stop
         stop-color="#A1A1A1"
         id="stop30" />
      <stop
         offset="1"
         stop-color="#989898"
         id="stop32" />
    </linearGradient>
    <linearGradient
       id="paint3_linear"
       x1="5"
       y1="78.3331"
       x2="115"
       y2="78.3331"
       gradientUnits="userSpaceOnUse">
      <stop
         stop-color="#4A6C1E"
         id="stop35" />
      <stop
         offset="1"
         stop-color="#6D9730"
         id="stop37" />
    </linearGradient>
    <linearGradient
       id="paint4_linear"
       x1="5"
       y1="78.3331"
       x2="115"
       y2="78.3331"
       gradientUnits="userSpaceOnUse">
      <stop
         stop-color="#4A6C1E"
         id="stop40" />
      <stop
         offset="1"
         stop-color="#6D9730"
         id="stop42" />
    </linearGradient>
    <linearGradient
       id="paint5_linear"
       x1="3.47651"
       y1="62.1921"
       x2="85.9765"
       y2="62.1921"
       gradientUnits="userSpaceOnUse">
      <stop
         stop-color="#4A6C1E"
         id="stop45" />
      <stop
         offset="1"
         stop-color="#6D9730"
         id="stop47" />
    </linearGradient>
    <linearGradient
       id="paint6_linear"
       x1="5.00001"
       y1="78.3331"
       x2="115"
       y2="78.3331"
       gradientUnits="userSpaceOnUse">
      <stop
         stop-color="#4A6C1E"
         id="stop50" />
      <stop
         offset="1"
         stop-color="#6D9730"
         id="stop52" />
    </linearGradient>
    <linearGradient
       id="paint7_linear"
       x1="3.4757"
       y1="62.1921"
       x2="85.9757"
       y2="62.1921"
       gradientUnits="userSpaceOnUse">
      <stop
         stop-color="#4A6C1E"
         id="stop55" />
      <stop
         offset="1"
         stop-color="#6D9730"
         id="stop57" />
    </linearGradient>
    <clipPath
       id="clip0">
      <rect
         width="110"
         height="65.2143"
         fill="white"
         transform="translate(5 27)"
         id="rect60" />
    </clipPath>
  </defs>
</svg>
